<svg xmlns="http://www.w3.org/2000/svg" viewBox="0 0 192 192" width="192" height="192">
  <defs>
    <linearGradient id="bg" x1="0" y1="0" x2="1" y2="1">
      <stop offset="0%" stop-color="#1a1a2e"/>
      <stop offset="100%" stop-color="#16213e"/>
    </linearGradient>
  </defs>
  <rect width="192" height="192" rx="38" fill="url(#bg)"/>
  <!-- Diamond -->
  <polygon points="96,28 138,96 96,164 54,96" fill="none" stroke="#e94560" stroke-width="4"/>
  <!-- Balance/Scale -->
  <line x1="96" y1="60" x2="96" y2="110" stroke="#f5c518" stroke-width="3" stroke-linecap="round"/>
  <line x1="66" y1="80" x2="126" y2="80" stroke="#f5c518" stroke-width="3" stroke-linecap="round"/>
  <!-- Left pan -->
  <line x1="66" y1="80" x2="56" y2="100" stroke="#f5c518" stroke-width="2"/>
  <line x1="66" y1="80" x2="76" y2="100" stroke="#f5c518" stroke-width="2"/>
  <path d="M52,100 Q66,112 80,100" fill="none" stroke="#f5c518" stroke-width="2"/>
  <!-- Right pan -->
  <line x1="126" y1="80" x2="116" y2="100" stroke="#f5c518" stroke-width="2"/>
  <line x1="126" y1="80" x2="136" y2="100" stroke="#f5c518" stroke-width="2"/>
  <path d="M112,100 Q126,112 140,100" fill="none" stroke="#f5c518" stroke-width="2"/>
  <!-- Base -->
  <polygon points="88,110 104,110 108,120 84,120" fill="#f5c518"/>
  <!-- K -->
  <text x="96" y="150" text-anchor="middle" font-family="serif" font-size="28" font-weight="bold" fill="#e94560">K</text>
</svg>
