<svg xmlns="http://www.w3.org/2000/svg" viewBox="0 0 192 192" width="192" height="192">
  <defs>
    <linearGradient id="bg" x1="0" y1="0" x2="1" y2="1">
      <stop offset="0%" stop-color="#13131c"/>
      <stop offset="100%" stop-color="#0a0a0e"/>
    </linearGradient>
    <radialGradient id="glow" cx="50%" cy="42%" r="58%">
      <stop offset="0%" stop-color="#e11d48" stop-opacity="0.22"/>
      <stop offset="100%" stop-color="#e11d48" stop-opacity="0"/>
    </radialGradient>
  </defs>
  <rect width="192" height="192" rx="38" fill="url(#bg)"/>
  <rect width="192" height="192" rx="38" fill="url(#glow)"/>
  <!-- Diamond -->
  <polygon points="96,28 138,96 96,164 54,96" fill="none" stroke="#e11d48" stroke-width="4"/>
  <!-- Balance / scale (てんびん) -->
  <line x1="96" y1="60" x2="96" y2="110" stroke="#b8945a" stroke-width="3" stroke-linecap="round"/>
  <line x1="66" y1="80" x2="126" y2="80" stroke="#b8945a" stroke-width="3" stroke-linecap="round"/>
  <line x1="66" y1="80" x2="56" y2="100" stroke="#b8945a" stroke-width="2"/>
  <line x1="66" y1="80" x2="76" y2="100" stroke="#b8945a" stroke-width="2"/>
  <path d="M52,100 Q66,112 80,100" fill="none" stroke="#b8945a" stroke-width="2"/>
  <line x1="126" y1="80" x2="116" y2="100" stroke="#b8945a" stroke-width="2"/>
  <line x1="126" y1="80" x2="136" y2="100" stroke="#b8945a" stroke-width="2"/>
  <path d="M112,100 Q126,112 140,100" fill="none" stroke="#b8945a" stroke-width="2"/>
  <polygon points="88,110 104,110 108,120 84,120" fill="#b8945a"/>
  <!-- K -->
  <text x="96" y="152" text-anchor="middle" font-family="Georgia,'Times New Roman',serif" font-size="30" font-weight="bold" fill="#e8c16a">K</text>
</svg>
