<svg xmlns="http://www.w3.org/2000/svg" viewBox="0 0 512 512" width="512" height="512">
  <defs>
    <linearGradient id="bg" x1="0" y1="0" x2="1" y2="1">
      <stop offset="0%" stop-color="#13131c"/>
      <stop offset="100%" stop-color="#0a0a0e"/>
    </linearGradient>
    <radialGradient id="glow" cx="50%" cy="42%" r="58%">
      <stop offset="0%" stop-color="#e11d48" stop-opacity="0.22"/>
      <stop offset="100%" stop-color="#e11d48" stop-opacity="0"/>
    </radialGradient>
  </defs>
  <rect width="512" height="512" rx="102" fill="url(#bg)"/>
  <rect width="512" height="512" rx="102" fill="url(#glow)"/>
  <!-- Diamond -->
  <polygon points="256,60 370,256 256,452 142,256" fill="none" stroke="#e11d48" stroke-width="8"/>
  <!-- Balance / scale (てんびん) -->
  <line x1="256" y1="150" x2="256" y2="300" stroke="#b8945a" stroke-width="6" stroke-linecap="round"/>
  <line x1="170" y1="210" x2="342" y2="210" stroke="#b8945a" stroke-width="6" stroke-linecap="round"/>
  <line x1="170" y1="210" x2="145" y2="265" stroke="#b8945a" stroke-width="4"/>
  <line x1="170" y1="210" x2="195" y2="265" stroke="#b8945a" stroke-width="4"/>
  <path d="M138,265 Q170,300 202,265" fill="none" stroke="#b8945a" stroke-width="4"/>
  <line x1="342" y1="210" x2="317" y2="265" stroke="#b8945a" stroke-width="4"/>
  <line x1="342" y1="210" x2="367" y2="265" stroke="#b8945a" stroke-width="4"/>
  <path d="M310,265 Q342,300 374,265" fill="none" stroke="#b8945a" stroke-width="4"/>
  <polygon points="236,300 276,300 290,330 222,330" fill="#b8945a"/>
  <!-- K -->
  <text x="256" y="410" text-anchor="middle" font-family="Georgia,'Times New Roman',serif" font-size="78" font-weight="bold" fill="#e8c16a">K</text>
</svg>
